<?xml version="1.0" standalone="no"?>
<!DOCTYPE svg PUBLIC "-//W3C//DTD SVG 20010904//EN"
 "http://www.w3.org/TR/2001/REC-SVG-20010904/DTD/svg10.dtd">
<svg version="1.0" xmlns="http://www.w3.org/2000/svg"
 width="512.000000pt" height="512.000000pt" viewBox="0 0 512.000000 512.000000"
 preserveAspectRatio="xMidYMid meet">

<g transform="translate(0.000000,512.000000) scale(0.100000,-0.100000)"
fill="#000000" stroke="none">
<path d="M1550 4669 c-268 -48 -502 -226 -614 -471 -46 -99 -65 -175 -73 -290
l-6 -98 -413 0 -413 0 -15 -22 c-14 -20 -16 -194 -16 -1664 0 -1602 0 -1642
19 -1665 l19 -24 2279 -3 c1459 -1 2310 1 2368 8 212 23 382 175 424 378 16
75 16 3409 0 3484 -30 144 -126 266 -263 334 l-80 39 -285 3 c-283 3 -286 3
-303 -19 -17 -19 -18 -55 -18 -435 l0 -414 -825 0 -825 0 0 58 c0 127 -45 285
-114 402 -110 186 -285 321 -496 380 -87 24 -265 34 -350 19z m298 -144 c145
-34 301 -139 386 -259 229 -321 157 -746 -164 -972 l-79 -55 -32 -97 c-49
-151 -114 -304 -196 -465 l-76 -148 -20 33 c-71 116 -224 463 -266 605 -21 70
-24 74 -83 114 -86 59 -133 103 -184 175 -151 212 -175 470 -66 699 87 182
259 323 448 369 79 19 253 19 332 1z m2916 -5 c76 -29 139 -88 178 -168 l33
-67 3 -1513 2 -1514 -49 36 c-27 20 -75 48 -107 63 -58 27 -63 27 -291 31
l-233 4 0 1574 0 1574 205 0 c181 0 210 -2 259 -20z m-3855 -936 c15 -45 38
-97 49 -116 12 -20 22 -40 22 -47 0 -8 -77 -11 -274 -11 -273 0 -275 0 -290
-22 -14 -20 -16 -156 -16 -1264 0 -1208 1 -1242 19 -1265 l19 -24 2122 0 2122
0 19 24 c17 21 19 41 19 202 0 140 3 179 13 179 29 0 118 -54 153 -92 62 -69
89 -140 89 -233 0 -71 -4 -89 -33 -147 -39 -80 -101 -138 -181 -170 l-56 -23
-2282 -3 -2283 -2 0 1550 0 1550 370 -2 371 -3 28 -81z m3251 -44 l0 -130
-885 0 c-487 0 -885 4 -885 8 0 5 15 39 34 78 18 38 39 87 46 109 6 22 13 46
15 53 4 9 180 12 840 12 l835 0 0 -130z m-2980 -331 c73 -57 100 -93 100 -134
0 -7 -19 -15 -45 -19 -25 -3 -66 -9 -91 -12 -53 -8 -84 -33 -84 -68 0 -13 10
-50 22 -82 22 -56 24 -59 152 -143 112 -73 137 -86 174 -86 l42 0 89 -160 c64
-116 96 -164 115 -173 48 -24 71 -9 124 81 l49 82 108 17 c73 12 113 14 121 7
6 -5 44 -51 83 -103 l71 -93 0 -145 0 -145 -37 -6 c-21 -3 -105 -13 -188 -22
-82 -9 -158 -22 -167 -28 -10 -7 -64 -72 -122 -145 -116 -148 -100 -107 -144
-372 -13 -76 -22 -106 -33 -108 -12 -2 -20 35 -43 202 l-29 204 22 170 c24
180 22 200 -19 222 -10 5 -29 10 -42 10 -18 0 -33 17 -71 79 l-47 80 16 98
c10 54 15 109 11 123 -5 19 -50 52 -188 139 l-182 113 -90 -3 -90 -4 -31 90
c-29 83 -37 96 -113 176 l-83 86 0 67 0 66 281 0 280 0 79 -61z m2562 -6 l68
-67 0 -72 0 -71 -122 -47 -123 -46 -134 0 -134 0 -58 55 c-42 40 -65 55 -86
55 -15 0 -76 -18 -134 -41 l-107 -41 -141 -142 -141 -143 0 -149 0 -149 107
-107 108 -108 105 0 105 0 112 -112 113 -113 0 -160 0 -161 120 -118 c109
-108 122 -118 147 -112 18 4 79 58 166 145 l137 137 0 69 0 68 55 58 55 58 0
112 0 113 90 92 c70 71 90 98 90 119 0 22 -21 49 -97 126 -65 66 -92 100 -82
104 94 34 90 34 137 -2 24 -18 48 -33 53 -33 5 0 9 -243 9 -609 0 -584 1 -610
19 -632 19 -23 23 -24 210 -27 l191 -4 0 -139 0 -139 -2020 0 -2020 0 0 982
c0 967 0 981 19 964 11 -10 36 -66 57 -124 23 -69 46 -115 62 -131 25 -23 30
-23 129 -17 l102 7 132 -83 131 -82 -6 -50 c-21 -163 -26 -140 54 -272 66
-109 88 -138 111 -146 5 -2 1 -60 -8 -131 l-17 -127 34 -252 c26 -192 39 -256
53 -274 17 -22 25 -24 118 -24 55 0 109 5 119 10 24 13 32 42 66 252 l27 167
69 88 c39 48 76 96 82 106 11 14 52 22 217 42 112 14 207 25 211 25 4 0 16 10
28 22 19 21 20 34 20 237 l0 216 -110 140 c-61 77 -119 144 -131 149 -13 6
-52 6 -107 -1 -48 -6 -88 -10 -89 -9 -1 1 22 54 52 117 29 64 75 175 101 247
l47 131 76 60 76 59 705 1 704 1 68 -67z m418 -223 l0 -291 -29 22 c-39 29
-57 28 -196 -15 -157 -48 -174 -55 -185 -77 -23 -41 -11 -62 105 -178 l115
-117 -61 -59 c-84 -83 -89 -95 -89 -216 l0 -102 -55 -58 -55 -58 0 -68 0 -68
-82 -82 c-46 -46 -87 -83 -93 -83 -6 0 -34 24 -62 53 l-52 52 -3 168 -3 168
-151 149 -150 150 -109 0 -109 0 -63 62 -63 62 0 96 0 95 113 112 c97 97 121
115 180 139 l69 27 52 -52 52 -51 176 0 177 0 163 61 c90 33 171 68 181 76 15
14 17 35 17 153 l0 136 -36 42 -36 42 141 0 141 0 0 -290z m-2803 -100 c12
-27 19 -50 17 -50 -3 0 -33 19 -67 42 l-62 43 35 6 c19 4 40 7 46 8 5 0 20
-21 31 -49z"/>
<path d="M1596 4240 c-111 -28 -216 -115 -264 -218 -24 -50 -27 -69 -27 -162
0 -93 3 -112 27 -162 139 -297 556 -303 700 -10 31 62 33 73 33 172 0 92 -3
112 -26 160 -62 131 -189 218 -330 225 -41 2 -91 0 -113 -5z m201 -158 c46
-24 99 -81 119 -128 8 -19 14 -61 14 -94 0 -33 -6 -75 -14 -94 -36 -87 -138
-156 -231 -156 -92 0 -194 68 -229 152 -20 46 -21 148 -2 192 27 65 92 123
166 147 40 13 133 3 177 -19z"/>
</g>
</svg>
